<svg width="264" height="30" viewBox="0 0 264 30" xmlns="http://www.w3.org/2000/svg" xmlns:xlink="http://www.w3.org/1999/xlink">
    <defs>
        <path id="kzffx5ny2a" d="M0 0h11.247v13.109H0z"/>
        <path id="k06icub11c" d="M0 0h14v13.41H0z"/>
    </defs>
    <g fill="none" fill-rule="evenodd">
        <g transform="translate(12.5 8.953)">
            <mask id="5d4cccgnpb" fill="#fff">
                <use xlink:href="#kzffx5ny2a"/>
            </mask>
            <path d="m3.758.73-.004 5.156 2.877.003c.424 0 .766-.038 1.026-.115a1.38 1.38 0 0 0 .615-.345c.15-.153.253-.35.31-.59.058-.24.098-.523.117-.849h.365L9.06 8.539h-.365a8.306 8.306 0 0 0-.165-.935 1.33 1.33 0 0 0-.303-.597 1.177 1.177 0 0 0-.585-.317c-.25-.062-.588-.094-1.012-.094l-2.876-.002-.004 4.325c0 .328.004.587.014.78.009.191.047.338.115.439a.472.472 0 0 0 .316.195c.145.03.356.043.635.043l2.22.002c.375 0 .693-.009.952-.028a3.05 3.05 0 0 0 .67-.114c.188-.057.354-.136.499-.237.144-.1.297-.227.46-.38.385-.373.795-.972 1.228-1.795h.388L10.11 13.11 0 13.099v-.363h.464a2.033 2.033 0 0 0 .775-.165c.122-.051.23-.121.327-.207a.704.704 0 0 0 .203-.303c.077-.211.117-.633.117-1.268l.007-8.498c0-.835-.081-1.348-.245-1.54-.232-.26-.623-.39-1.174-.39L.011.363V0l10.11.008-.003 2.871h-.222a7.162 7.162 0 0 0-.31-1.13c-.111-.282-.258-.5-.44-.654a1.386 1.386 0 0 0-.7-.295A7.416 7.416 0 0 0 7.355.734L3.758.73z" fill="#111" mask="url(#5d4cccgnpb)"/>
        </g>
        <path d="m41.014 8.977-.003 3.093h-.223c-.105-.826-.347-1.411-.726-1.753-.38-.341-.94-.512-1.68-.513l-1.846-.002-.009 10.007c0 .442.03.79.093 1.044.063.255.151.445.266.57.115.124.26.204.432.237.173.034.375.05.605.05l.446.001v.364l-5.551-.004v-.365l.462.001c.232 0 .434-.018.607-.057a.798.798 0 0 0 .434-.252c.116-.13.205-.319.268-.568.063-.25.094-.59.095-1.022L34.692 9.8 33.118 9.8c-.395-.001-.744.03-1.047.093a1.92 1.92 0 0 0-.787.345 1.711 1.711 0 0 0-.528.691c-.13.294-.21.672-.24 1.133h-.364l.003-3.094 10.859.009zM50.836 9.714l-.004 5.155 2.876.003c.424 0 .766-.038 1.026-.115a1.38 1.38 0 0 0 .615-.345c.15-.153.253-.35.311-.59.058-.24.097-.523.117-.849h.364l-.003 4.549h-.365a8.19 8.19 0 0 0-.166-.935 1.33 1.33 0 0 0-.302-.597 1.177 1.177 0 0 0-.586-.317c-.25-.062-.587-.094-1.011-.094l-2.877-.002-.003 4.325c0 .328.004.587.013.78.01.191.048.338.115.439a.472.472 0 0 0 .318.195c.144.03.355.043.634.044l2.22.001c.375 0 .692-.009.952-.028a3.05 3.05 0 0 0 .67-.114c.188-.057.354-.136.498-.237.144-.1.298-.226.461-.38.385-.373.794-.972 1.228-1.795h.388l-1.138 3.285-10.11-.009.001-.364h.464a2.033 2.033 0 0 0 .775-.165c.121-.051.23-.121.327-.207a.707.707 0 0 0 .203-.303c.077-.21.116-.633.117-1.267l.007-8.499c0-.835-.081-1.348-.245-1.54-.232-.26-.623-.39-1.174-.39l-.464-.001v-.364l10.11.008-.002 2.871h-.223a7.162 7.162 0 0 0-.31-1.13c-.11-.282-.257-.5-.44-.654a1.382 1.382 0 0 0-.7-.295 7.416 7.416 0 0 0-1.09-.066l-3.597-.003zM68.011 15.355a5.4 5.4 0 0 1 .325.008c.092.005.166.007.224.007.626 0 1.175-.07 1.648-.214a3.445 3.445 0 0 0 1.185-.604c.318-.259.557-.563.716-.913.16-.35.24-.731.24-1.144a3 3 0 0 0-.202-1.115 2.5 2.5 0 0 0-1.472-1.447 3.144 3.144 0 0 0-1.142-.203c-.395 0-.9.062-1.517.186l-.005 5.439zm9.314 6.754-3.496-.003-4.442-6.138c-.165.01-.312.017-.442.022-.13.005-.25.006-.356.006a5.156 5.156 0 0 1-.579-.029l-.003 3.809c0 .462.03.824.093 1.09.062.264.153.461.273.59.12.13.263.21.43.24.17.028.358.043.57.043h.517v.364l-5.612-.005v-.364h.503c.537.001.93-.176 1.18-.53.134-.212.202-.687.202-1.427l.008-8.455c0-.806-.09-1.315-.272-1.527-.25-.288-.62-.432-1.108-.432h-.503v-.365l4.777.004c.702 0 1.308.028 1.818.081.51.053.928.132 1.255.238.327.106.635.253.923.44.289.187.541.413.758.677.216.264.386.558.51.884a2.9 2.9 0 0 1 .188 1.05c0 .816-.262 1.516-.783 2.1-.52.585-1.335 1.001-2.443 1.25l2.7 3.755c.317.433.598.79.844 1.069.245.279.49.5.736.664.245.164.505.284.78.361.274.078.599.135.974.174v.364zM80.734 9.013l3.545.003 7.995 9.84.006-7.553c0-.442-.03-.793-.093-1.052-.063-.26-.154-.451-.274-.577a.808.808 0 0 0-.44-.238 3.149 3.149 0 0 0-.593-.051h-.462V9.02l4.579.003v.364h-.477a2.8 2.8 0 0 0-.608.058.777.777 0 0 0-.433.258c-.115.135-.202.327-.26.576-.058.25-.088.592-.088 1.024l-.009 11.041h-.346l-8.62-10.561-.007 8.067c0 .45.03.804.093 1.059.062.255.15.444.266.569.115.125.259.201.432.23.172.03.369.044.59.044h.46v.364l-4.558-.004v-.364h.463a2.8 2.8 0 0 0 .607-.056.83.83 0 0 0 .44-.252c.12-.13.21-.319.268-.568.058-.25.088-.59.088-1.023l.007-9.103c-.191-.23-.352-.413-.48-.548a3.154 3.154 0 0 0-.367-.331 1.823 1.823 0 0 0-.373-.216 7.14 7.14 0 0 0-.503-.188c-.192-.058-.475-.087-.849-.088v-.363zM106.54 17.02l-2.212-5.278-2.279 5.275 4.49.003zm.273.728-5.067-.004-.894 2.062c-.211.51-.317.889-.317 1.138 0 .106.016.202.05.29a.525.525 0 0 0 .217.237c.11.073.265.135.462.188.198.053.462.09.79.108v.365l-4.134-.004v-.364c.327-.048.592-.12.794-.215a1.56 1.56 0 0 0 .52-.396 2.68 2.68 0 0 0 .398-.655c.121-.268.268-.6.441-.994l4.615-10.754h.332l4.549 10.878c.183.452.353.814.513 1.088.158.273.322.487.49.64.17.155.353.261.55.318.198.058.437.092.717.102v.363l-5.187-.004v-.364c.518-.018.87-.102 1.057-.251.187-.149.28-.329.28-.54-.008-.279-.137-.731-.386-1.356l-.79-1.876zM127.442 18.545l.32.058-1.137 3.55-10.13-.009v-.364H117c.537 0 .93-.176 1.18-.53.134-.212.202-.687.202-1.427l.007-8.455c0-.807-.09-1.315-.272-1.527-.249-.288-.618-.433-1.107-.433h-.503v-.364l5.936.005v.364c-.356 0-.65.017-.886.05-.235.033-.43.08-.583.143a1.075 1.075 0 0 0-.36.223 1.248 1.248 0 0 0-.216.289c-.096.192-.145.686-.145 1.485l-.007 8.231c0 .451.033.778.1.98a.65.65 0 0 0 .403.418c.172.059.676.088 1.511.088h.95c1.007.002 1.712-.07 2.116-.213.2-.067.393-.164.576-.288.182-.124.36-.288.532-.49.174-.2.341-.445.505-.733.163-.288.332-.638.504-1.051M141.052 9.43v-.365l5.633.005v.364h-.479c-.541-.001-.933.157-1.174.474-.155.192-.233.686-.234 1.484l-.005 6.397c-.001 1.009-.113 1.81-.335 2.406a3.748 3.748 0 0 1-.442.857 3.467 3.467 0 0 1-.674.727c-.261.211-.553.379-.876.504a2.908 2.908 0 0 1-1.05.186c-.309 0-.585-.041-.826-.123a1.848 1.848 0 0 1-.608-.33 1.56 1.56 0 0 1-.383-.475 1.194 1.194 0 0 1-.137-.554c0-.364.107-.623.319-.776.212-.153.433-.23.664-.23.097 0 .191.01.282.03a.59.59 0 0 1 .275.158c.091.087.187.216.289.39.101.172.214.407.34.705.144.345.338.518.581.518.175 0 .337-.105.488-.317.15-.21.227-.585.227-1.123l.008-8.951c0-.308-.005-.558-.015-.75a1.993 1.993 0 0 0-.071-.475.696.696 0 0 0-.167-.296 1.398 1.398 0 0 0-.282-.21c-.29-.153-.58-.23-.87-.23h-.478zM158.903 9.505c-.663 0-1.252.141-1.767.424a3.709 3.709 0 0 0-1.299 1.21c-.351.523-.619 1.157-.802 1.901-.183.745-.275 1.583-.276 2.514 0 .922.088 1.765.265 2.529.177.764.441 1.423.791 1.976.351.552.786.98 1.304 1.283.52.303 1.116.454 1.789.455a4.06 4.06 0 0 0 1.68-.344c.514-.23.964-.588 1.35-1.073.384-.485.685-1.104.902-1.858.217-.754.326-1.655.327-2.701 0-.99-.087-1.876-.265-2.66-.177-.782-.446-1.445-.806-1.988a3.662 3.662 0 0 0-1.34-1.24c-.533-.285-1.15-.427-1.853-.428m.185-.707a5.73 5.73 0 0 1 2.396.52 6.43 6.43 0 0 1 2.005 1.429 6.9 6.9 0 0 1 1.376 2.14c.341.822.512 1.712.51 2.673a7.275 7.275 0 0 1-.514 2.75 7.01 7.01 0 0 1-1.387 2.198 6.318 6.318 0 0 1-2.051 1.453 6.06 6.06 0 0 1-2.504.523c-.895 0-1.732-.17-2.511-.506a6.026 6.026 0 0 1-2.027-1.42 6.749 6.749 0 0 1-1.355-2.185c-.331-.845-.497-1.776-.496-2.795a7.047 7.047 0 0 1 .5-2.65 6.7 6.7 0 0 1 1.373-2.153 6.476 6.476 0 0 1 2.073-1.446c.799-.354 1.67-.532 2.612-.531" fill="#111"/>
        <g transform="translate(169.892 9.09)">
            <mask id="4y00p3o31d" fill="#fff">
                <use xlink:href="#k06icub11c"/>
            </mask>
            <path d="M9.36.372V.008L14 .012v.364h-.493c-.503 0-.9.216-1.19.647-.134.192-.202.658-.203 1.397l-.005 5.303c0 1.287-.137 2.31-.406 3.068a3.568 3.568 0 0 1-1.533 1.85 5.18 5.18 0 0 1-1.351.562 6.814 6.814 0 0 1-1.77.207c-.721-.001-1.352-.064-1.891-.189a4.52 4.52 0 0 1-1.386-.549 3.43 3.43 0 0 1-.953-.865 4.419 4.419 0 0 1-.605-1.139c-.212-.585-.317-1.662-.316-3.228l.005-5.115a5.01 5.01 0 0 0-.079-.986c-.052-.255-.137-.454-.251-.6a.87.87 0 0 0-.44-.294 2.193 2.193 0 0 0-.629-.08H0V0l5.673.005V.37h-.505c-.231 0-.434.023-.607.071a.84.84 0 0 0-.432.28c-.116.14-.205.337-.268.59-.062.255-.094.594-.094 1.016l-.005 5.702c0 .576.037 1.138.114 1.685.077.547.235 1.034.476 1.462.24.427.585.768 1.033 1.023.448.254 1.043.382 1.786.383a4.92 4.92 0 0 0 1.229-.15c.395-.1.755-.237 1.078-.41.323-.172.604-.38.846-.625.241-.244.42-.51.535-.8.251-.565.378-1.553.38-2.965l.004-5.299c0-.806-.092-1.316-.275-1.527-.25-.288-.622-.432-1.115-.432L9.36.372z" fill="#111" mask="url(#4y00p3o31d)"/>
        </g>
        <path d="M192.146 15.464c.124 0 .233.002.325.008.091.004.166.006.224.006.626.001 1.175-.07 1.647-.213a3.445 3.445 0 0 0 1.186-.604c.317-.259.557-.563.716-.913.159-.35.24-.731.24-1.144a3.01 3.01 0 0 0-.201-1.116 2.515 2.515 0 0 0-.578-.877 2.632 2.632 0 0 0-.896-.57 3.142 3.142 0 0 0-1.141-.202c-.395 0-.901.062-1.518.186l-.004 5.439zm9.313 6.754-3.495-.003-4.443-6.138c-.164.01-.311.017-.442.022-.13.004-.248.006-.354.006a5.137 5.137 0 0 1-.58-.03l-.003 3.81c0 .461.03.824.092 1.089s.153.462.273.592c.12.13.264.209.432.238.168.029.357.043.568.043h.517v.365l-5.612-.005v-.364h.504c.537.001.93-.176 1.18-.53.134-.212.202-.687.202-1.427l.008-8.455c0-.807-.09-1.315-.273-1.527-.249-.288-.618-.432-1.107-.433h-.503v-.364l4.776.004c.703 0 1.308.027 1.819.08.51.054.928.133 1.255.239.327.106.634.253.923.44.288.187.54.413.757.676.217.265.387.56.512.885.124.326.187.676.186 1.05 0 .816-.261 1.516-.782 2.1-.521.584-1.336 1.001-2.443 1.25l2.699 3.755c.318.433.599.79.844 1.068.246.28.49.5.736.665.246.163.506.284.78.361.274.078.6.135.975.174v.364zM204.395 9.12l3.545.004 7.995 9.84.006-7.553c0-.441-.03-.792-.093-1.052-.063-.259-.154-.45-.274-.576a.81.81 0 0 0-.44-.239 3.157 3.157 0 0 0-.593-.05l-.462-.001v-.364l4.579.004v.364h-.477c-.232-.001-.434.019-.607.057a.777.777 0 0 0-.434.259c-.115.134-.203.326-.26.576-.059.25-.088.591-.088 1.024l-.01 11.04h-.345l-8.62-10.56-.007 8.066c0 .451.03.805.093 1.06.061.254.15.443.266.568a.732.732 0 0 0 .432.231c.172.029.369.043.59.043h.46v.364l-4.558-.003v-.364h.463c.23 0 .433-.018.606-.057a.83.83 0 0 0 .441-.252c.12-.13.21-.318.268-.568.058-.25.088-.59.088-1.022l.007-9.103a10.81 10.81 0 0 0-.481-.548 3.112 3.112 0 0 0-.366-.332 1.8 1.8 0 0 0-.374-.216 7.02 7.02 0 0 0-.502-.188c-.192-.058-.475-.087-.849-.087V9.12zM226.938 9.868l-.004 5.156 2.876.002c.424 0 .767-.037 1.027-.114.26-.076.465-.192.614-.345.15-.154.253-.35.311-.59.058-.24.097-.523.117-.85h.365l-.004 4.55-.365-.001a8.425 8.425 0 0 0-.165-.935 1.326 1.326 0 0 0-.303-.596 1.175 1.175 0 0 0-.585-.317c-.251-.062-.588-.094-1.012-.094l-2.876-.003-.004 4.326c0 .327.004.587.014.779.009.192.047.338.114.44a.474.474 0 0 0 .318.194c.143.03.355.043.634.044l2.22.002c.375 0 .692-.01.952-.028.26-.019.483-.057.67-.115.188-.057.354-.136.498-.236.145-.1.298-.227.462-.38.385-.374.794-.972 1.227-1.796h.388l-1.137 3.285-10.11-.009v-.363h.464a2.045 2.045 0 0 0 .776-.165c.12-.052.229-.122.326-.208a.703.703 0 0 0 .203-.302c.078-.211.116-.634.117-1.268l.007-8.498c0-.835-.081-1.349-.245-1.541-.232-.26-.623-.39-1.174-.39h-.463v-.364l10.11.008-.003 2.87h-.223a7.17 7.17 0 0 0-.31-1.129c-.11-.282-.257-.5-.44-.654a1.384 1.384 0 0 0-.7-.295 7.408 7.408 0 0 0-1.09-.067l-3.597-.003zM246.671 9.159l4.579.003v.365l-.26-.001c-.365 0-.76.166-1.182.496-.423.33-.888.904-1.399 1.72l-3.183 4.967-.002 3.284c0 .441.03.79.093 1.044.062.255.153.445.273.569.12.125.268.205.446.238.178.034.382.05.613.05l.417.001v.364l-5.572-.005v-.363h.477c.232 0 .434-.018.607-.057a.798.798 0 0 0 .434-.252c.115-.13.202-.318.26-.568.058-.25.088-.59.088-1.023l.003-3.111-3.587-5.476c-.221-.327-.402-.59-.54-.786a5.6 5.6 0 0 0-.324-.424 3.818 3.818 0 0 0-.195-.174 2.016 2.016 0 0 0-.34-.223 3.144 3.144 0 0 0-.445-.195 1.556 1.556 0 0 0-.52-.087v-.364l5.612.005v.364h-.289c-.144 0-.288.016-.431.05a1.355 1.355 0 0 0-.39.151.831.831 0 0 0-.282.266.681.681 0 0 0-.108.381c-.01.115.039.276.143.483.105.207.254.464.445.771l2.711 4.223 2.602-4.032c.368-.585.562-1.036.583-1.353a1.816 1.816 0 0 0-.095-.375.682.682 0 0 0-.217-.295 1.15 1.15 0 0 0-.4-.195 2.282 2.282 0 0 0-.625-.073V9.16z" fill="#111"/>
    </g>
</svg>
