<?xml version="1.0" encoding="utf-8"?>
<!-- Generator: Adobe Illustrator 27.0.0, SVG Export Plug-In . SVG Version: 6.00 Build 0)  -->
<svg version="1.1" id="Layer_1" xmlns="http://www.w3.org/2000/svg" xmlns:xlink="http://www.w3.org/1999/xlink" x="0px" y="0px"
	 viewBox="0 0 623.62 170.08" style="enable-background:new 0 0 623.62 170.08;" xml:space="preserve">
<g>
	<path d="M0,166.65v-43.07c2.69,0.49,7.83,0.73,12.97,0.73c24.72,0,35.48-12.48,35.48-37.44V0h53.84v82.23
		c0,59.22-35.73,85.16-87.36,85.16C11.5,167.39,5.38,167.14,0,166.65z"/>
	<path d="M205.06,76.11l-36.22,90.3h-56.29L187.93,0h36.71l74.88,166.41h-57.26L205.06,76.11z"/>
	<path d="M326.43,166.65v-43.07c2.69,0.49,7.83,0.73,12.97,0.73c24.72,0,35.48-12.48,35.48-37.44V0h53.84v82.23
		c0,59.22-35.73,85.16-87.36,85.16C337.93,167.39,331.82,167.14,326.43,166.65z"/>
	<path d="M468.47,94.95V0h53.84v95.44c0,17.38,7.34,30.1,23.74,30.1s23.74-12.72,23.74-30.1V0h53.84v94.71
		c0,51.15-34.5,75.37-77.58,75.37C502.98,170.08,468.47,146.83,468.47,94.95z"/>
</g>
</svg>
