<svg width="273" height="36" viewBox="0 0 273 36" fill="none" xmlns="http://www.w3.org/2000/svg">
<g clip-path="url(#clip0_149_739)">
<path d="M48.9699 7.75113H53.0019V15.984H62.7393V7.75113H66.7713V28.0229H62.7393V19.1644H53.0019V28.0229H48.9699V7.75113Z" fill="#051469"/>
<path d="M78.6662 7.75113H80.8808L88.1206 23.4794C89.285 26.0069 90.1068 27.3972 90.5909 28.0229H88.1777C86.6731 28.0229 85.6229 27.4543 84.7713 25.4954L84.091 23.9064H74.9495L73.1619 28.0229H69.3583L78.6712 7.75113H78.6662ZM82.7553 20.8377L79.5178 13.3696L76.2803 20.8377H82.7553Z" fill="#051469"/>
<path d="M93.173 7.75113H95.3876L107.767 21.096V7.75113H111.23V28.0229H109.015L96.6364 14.678V28.0229H93.173V7.75113Z" fill="#051469"/>
<path d="M112.593 32.1368C111.997 31.5409 111.714 30.518 111.714 29.5522C112.283 29.8353 113.077 29.9495 113.844 29.9495C115.689 29.9495 116.712 28.7578 116.712 26.2874V7.74865H120.744V26.6846C120.744 30.5453 118.758 32.9586 115.322 32.9586C114.214 32.9586 113.249 32.7873 112.596 32.1343L112.593 32.1368Z" fill="#051469"/>
<path d="M125.568 7.75113H129.6V28.0229H125.568V7.75113Z" fill="#051469"/>
<path d="M134.424 7.75113H136.639L149.018 21.096V7.75113H152.481V28.0229H150.266L137.887 14.678V28.0229H134.424V7.75113Z" fill="#051469"/>
<path d="M168.294 10.9291H162.047V7.74865H178.57V10.9291H172.323V28.0204H168.291V10.9291H168.294Z" fill="#051469"/>
<path d="M181.609 7.75113H188.99C193.874 7.75113 196.94 10.1073 196.94 13.8264C196.94 16.5798 195.264 18.6802 192.454 19.646L196.173 24.3012C197.734 26.2601 198.812 27.283 199.721 28.0204H197.166C195.093 28.0204 193.73 27.3401 192.538 25.7486L186.406 17.5158H188.25C191.289 17.5158 192.848 16.3514 192.848 14.1095C192.848 11.8675 191.344 10.872 188.163 10.872H185.636V28.0204H181.604V7.74865L181.609 7.75113Z" fill="#051469"/>
<path d="M209.346 7.75113H211.561L218.801 23.4794C219.965 26.0069 220.787 27.3972 221.271 28.0229H218.858C217.353 28.0229 216.303 27.4543 215.451 25.4954L214.771 23.9064H205.63L203.842 28.0229H200.038L209.351 7.75113H209.346ZM213.435 20.8377L210.198 13.3696L206.96 20.8377H213.435Z" fill="#051469"/>
<path d="M223.682 7.75113L229.643 22.0593L235.577 7.75113H239.494L230.579 28.0229H228.364L219.223 7.75113H223.682Z" fill="#051469"/>
<path d="M242.25 7.75113H255.31V10.9315H246.282V15.984H253.862V19.1073H246.282V24.8424H255.595V28.0229H242.25V7.75113Z" fill="#051469"/>
<path d="M259.652 7.75113H263.684V24.8424H272.741V28.0229H259.652V7.75113Z" fill="#051469"/>
<path d="M20.2618 19.0775V24.7431C21.0265 24.6786 23.3553 23.4273 23.3553 20.9048L23.3702 18.3575C23.3702 13.0469 25.4607 11.5423 27.9459 11.5423C28.9812 11.5423 32.8395 12.2772 32.8395 18.2582C32.8395 24.974 26.1087 32.3404 17.4886 32.323C11.7037 32.323 7.35889 31.027 3.01407 26.6549L2.87255 26.7542C5.78731 32.1269 11.2941 35.7566 17.5953 35.7566C26.9454 35.7566 34.3788 27.8118 34.5252 18.1589C34.5972 13.3175 31.387 9.11913 27.4891 9.11913C23.2212 9.11913 20.5672 12.0041 20.2618 16.6766L14.9214 16.6816V11.016C14.1567 11.0805 11.8279 12.3318 11.8279 14.8543L11.813 17.4016C11.813 22.7122 9.72248 24.2168 7.23724 24.2168C6.20193 24.2168 2.34372 23.4819 2.34372 17.5009C2.34372 10.7851 9.07448 3.41872 17.6946 3.4361C23.4794 3.4361 27.8243 4.7321 32.1691 9.10423L32.3106 9.00493C29.3959 3.63224 23.8891 0.00244141 17.5879 0.00244141C8.23779 0.00244141 0.804409 7.94727 0.657926 17.6002C0.585926 22.4416 3.79614 26.64 7.69407 26.64C11.9619 26.64 14.616 23.755 14.9214 19.0824L20.2618 19.0775Z" fill="#051469"/>
</g>
<defs>
<clipPath id="clip0_149_739">
<rect width="272.11" height="36" fill="white" transform="translate(0.655273)"/>
</clipPath>
</defs>
</svg>
