<?xml version="1.0" encoding="utf-8"?>
<!-- Generator: Adobe Illustrator 26.2.0, SVG Export Plug-In . SVG Version: 6.00 Build 0)  -->
<svg version="1.1" xmlns="http://www.w3.org/2000/svg" xmlns:xlink="http://www.w3.org/1999/xlink" x="0px" y="0px"
	 viewBox="0 0 130 90" style="enable-background:new 0 0 130 90;" xml:space="preserve">
<style type="text/css">
	.st0{fill:#005677;}
</style>
<g>
	<path id="XMLID_168_" class="st0" d="M26.35,58.18l-5.23-17.76L15.9,58.18c-0.32,1.07-1.3,1.81-2.42,1.81H9.85
		c-1.1,0-2.07-0.71-2.4-1.75L0,35.15h4.31c1.1,0,2.08,0.72,2.41,1.77l5.13,16.51l4.79-16.47c0.31-1.08,1.3-1.82,2.42-1.82h4.13
		c1.12,0,2.11,0.74,2.42,1.82l4.79,16.47l5.13-16.51c0.33-1.05,1.3-1.77,2.41-1.77h4.31l-7.44,23.09c-0.34,1.04-1.31,1.75-2.4,1.75
		h-3.64C27.66,59.99,26.67,59.25,26.35,58.18z"/>
	<path id="XMLID_167_" class="st0" d="M85.94,60.31c-2.76,0-4.83-0.65-6.3-1.82c-2.18-1.73-3.2-4.21-3.2-7.82V32.21
		c0-1.39,1.13-2.52,2.52-2.52h3.25v20.62c0,1.9,0.37,3.25,1.17,4.12c0.47,0.5,1.13,0.78,1.82,0.94c1.13,0.27,1.91,1.32,1.91,2.48
		l0,2.42C86.71,60.3,86.32,60.31,85.94,60.31z"/>
	<path id="XMLID_166_" class="st0" d="M116.46,60.31c-4.57,0-9.55-1.09-11.99-2.12l0.72-2.22c0.43-1.31,1.83-2.02,3.15-1.62
		c2.81,0.85,5.38,1.22,8.24,1.22c3.92,0,8.09-0.25,8.09-3.2c0-2.63-3.62-2.75-7.13-2.87c-0.5-0.02-1-0.03-1.49-0.06
		c-5.77-0.31-10.95-1.07-10.95-6.92c0-6.36,6.7-7.7,12.32-7.7c3.63,0,6.99,0.45,10.89,1.45l-0.61,2.07
		c-0.37,1.25-1.63,2.02-2.9,1.76c-2.6-0.52-4.99-0.78-7.13-0.78c-4.97,0-7,0.84-7,2.9c0,2.07,3.24,2.24,6.38,2.4
		c6.07,0.31,12.94,0.67,12.94,7.25C130,58.88,124.59,60.31,116.46,60.31z"/>
	<path id="XMLID_163_" class="st0" d="M71.37,45.91c0-2.57-1.01-5.13-2.84-7.23c-2.18-2.49-5.84-3.86-10.3-3.86
		c-8.92,0-14.46,5.07-14.46,13.22c0,7.91,5.18,12.27,14.58,12.27c2.3,0,4.59-0.2,6.81-0.6c1.98-0.36,3.74-0.82,5.75-1.42l-0.59-2.07
		c-0.37-1.29-1.68-2.06-2.98-1.76c-2.15,0.5-5.37,1.1-8.33,1.1c-4.38,0-8.49-1.34-8.96-5.8h21.11
		C71.32,48.37,71.37,47.41,71.37,45.91z M58.23,39.32c4.21,0,6.79,1.64,7.51,6.17H50.07C50.75,41.37,53.98,39.32,58.23,39.32z"/>
	<path id="XMLID_162_" class="st0" d="M99.73,60.31c-2.76,0-4.83-0.65-6.3-1.82c-2.18-1.73-3.2-4.21-3.2-7.82V32.21
		c0-1.39,1.13-2.52,2.52-2.52H96v20.62c0,1.9,0.37,3.25,1.17,4.12c0.47,0.5,1.13,0.78,1.82,0.94c1.13,0.27,1.91,1.32,1.91,2.48v2.42
		C100.5,60.3,100.11,60.31,99.73,60.31z"/>
</g>
</svg>
